<svg xmlns="http://www.w3.org/2000/svg" xmlns:xlink="http://www.w3.org/1999/xlink" width="500" zoomAndPan="magnify" viewBox="0 0 375 374.999991" height="500" preserveAspectRatio="xMidYMid meet" version="1.2"><defs><clipPath id="090c91fd6c"><path d="M 187.5 0 C 83.945312 0 0 83.945312 0 187.5 C 0 291.054688 83.945312 375 187.5 375 C 291.054688 375 375 291.054688 375 187.5 C 375 83.945312 291.054688 0 187.5 0 Z M 187.5 0 "/></clipPath><clipPath id="fb3a8d0bfc"><path d="M 20.003906 131.355469 L 200.351562 131.355469 L 200.351562 199 L 20.003906 199 Z M 20.003906 131.355469 "/></clipPath><clipPath id="b647ef61fd"><path d="M 45.089844 175.707031 L 57 175.707031 L 57 243.53125 L 45.089844 243.53125 Z M 45.089844 175.707031 "/></clipPath></defs><g id="89bf473e9c"><g clip-rule="nonzero" clip-path="url(#090c91fd6c)"><rect x="0" width="375" y="0" height="374.999991" style="fill:#317b7e;fill-opacity:1;stroke:none;"/></g><g clip-rule="nonzero" clip-path="url(#fb3a8d0bfc)"><path style=" stroke:none;fill-rule:nonzero;fill:#ffffff;fill-opacity:1;" d="M 52.730469 152.820312 L 52.730469 152.8125 M 200.324219 165.042969 L 200.355469 165.035156 L 200.300781 165.035156 L 159.5 149.796875 L 159.480469 149.769531 L 159.445312 149.773438 L 131.269531 139.253906 L 131.257812 139.246094 L 131.246094 139.222656 L 131.207031 139.230469 L 110.167969 131.371094 L 110.175781 131.355469 L 76.398438 143.96875 L 52.726562 152.8125 L 20.003906 165.035156 L 62.605469 180.945312 L 64.367188 181.601562 L 89.027344 190.816406 L 110.175781 198.714844 L 134.285156 189.707031 L 134.289062 189.707031 L 155.988281 181.601562 L 161.632812 179.496094 L 200.3125 165.046875 L 200.339844 165.046875 L 200.324219 165.042969 "/></g><path style=" stroke:none;fill-rule:nonzero;fill:#ffffff;fill-opacity:1;" d="M 64.367188 185.4375 L 64.367188 203.460938 L 64.371094 203.460938 C 64.371094 203.472656 64.367188 203.488281 64.367188 203.5 C 64.367188 211 69.445312 217.789062 77.664062 222.722656 C 85.964844 227.703125 97.464844 230.789062 110.175781 230.789062 C 111.816406 230.789062 113.429688 230.738281 115.023438 230.636719 C 127.335938 229.867188 138.191406 226.191406 145.632812 220.78125 C 152.101562 216.078125 155.988281 210.058594 155.988281 203.5 C 155.988281 203.488281 155.988281 203.472656 155.988281 203.460938 L 155.988281 185.4375 L 110.175781 202.546875 L 64.367188 185.4375 "/><g clip-rule="nonzero" clip-path="url(#b647ef61fd)"><path style=" stroke:none;fill-rule:nonzero;fill:#ffffff;fill-opacity:1;" d="M 55.511719 226.128906 L 55.488281 225.882812 L 54 210.433594 L 53.933594 209.757812 L 53.21875 202.320312 L 53.820312 202.320312 L 53.820312 194.046875 C 54.648438 193.304688 55.171875 192.226562 55.171875 191.027344 C 55.171875 190.410156 55.035156 189.828125 54.789062 189.304688 C 54.390625 188.457031 53.707031 187.769531 52.863281 187.359375 L 52.863281 177.308594 L 49.269531 175.964844 L 49.269531 187.394531 C 47.945312 188.066406 47.03125 189.4375 47.03125 191.027344 C 47.03125 192.226562 47.554688 193.304688 48.382812 194.046875 L 48.382812 202.320312 L 49.042969 202.320312 L 48.605469 206.773438 L 48.066406 212.3125 L 46.730469 225.960938 L 46.726562 226.007812 L 46.003906 233.40625 L 45.355469 240.027344 C 45.339844 240.167969 45.335938 240.332031 45.355469 240.476562 C 45.574219 242.292969 48.324219 243.664062 51.496094 243.539062 C 54.667969 243.417969 57.066406 241.84375 56.847656 240.027344 L 55.511719 226.128906 "/></g><g style="fill:#ffffff;fill-opacity:1;"><g transform="translate(200.832428, 226.383971)"><path style="stroke:none" d="M 24.96875 1.734375 C 20.34375 -0.578125 16.796875 -3.660156 14.328125 -7.515625 C 11.867188 -11.367188 10.640625 -15.53125 10.640625 -20 L 10.640625 -59.421875 C 10.554688 -61.109375 10.398438 -62.453125 10.171875 -63.453125 C 10.097656 -63.691406 10 -63.925781 9.875 -64.15625 C 9.757812 -64.382812 9.550781 -64.578125 9.25 -64.734375 C 8.707031 -65.191406 7.628906 -65.421875 6.015625 -65.421875 L 5.3125 -65.421875 C 3.851562 -65.421875 2.695312 -65.804688 1.84375 -66.578125 C 1.613281 -66.734375 1.441406 -66.867188 1.328125 -66.984375 C 1.210938 -67.097656 1.097656 -67.25 0.984375 -67.4375 C 0.867188 -67.632812 0.769531 -67.789062 0.6875 -67.90625 C 0.613281 -68.019531 0.554688 -68.171875 0.515625 -68.359375 C 0.484375 -68.554688 0.445312 -68.710938 0.40625 -68.828125 C 0.363281 -68.953125 0.34375 -69.109375 0.34375 -69.296875 C 0.34375 -69.492188 0.320312 -69.628906 0.28125 -69.703125 C 0.25 -69.773438 0.234375 -69.925781 0.234375 -70.15625 C 0.234375 -70.394531 0.234375 -70.515625 0.234375 -70.515625 L 0.234375 -70.75 C 0.234375 -71.050781 0.25 -71.351562 0.28125 -71.65625 C 0.320312 -71.96875 0.378906 -72.257812 0.453125 -72.53125 C 0.535156 -72.800781 0.65625 -73.070312 0.8125 -73.34375 C 0.96875 -73.613281 1.117188 -73.90625 1.265625 -74.21875 C 1.578125 -74.601562 1.941406 -74.945312 2.359375 -75.25 C 2.785156 -75.5625 3.25 -75.789062 3.75 -75.9375 C 4.257812 -76.09375 4.742188 -76.171875 5.203125 -76.171875 L 5.3125 -76.171875 C 10.25 -75.941406 14.757812 -75.828125 18.84375 -75.828125 C 23.46875 -75.828125 28.242188 -75.941406 33.171875 -76.171875 L 33.296875 -76.171875 C 33.753906 -76.171875 34.234375 -76.09375 34.734375 -75.9375 C 35.234375 -75.789062 35.695312 -75.5625 36.125 -75.25 C 36.550781 -74.945312 36.914062 -74.601562 37.21875 -74.21875 C 37.601562 -73.675781 37.875 -73.113281 38.03125 -72.53125 C 38.1875 -71.957031 38.265625 -71.363281 38.265625 -70.75 L 38.265625 -70.515625 C 38.179688 -69.898438 38.117188 -69.457031 38.078125 -69.1875 C 38.046875 -68.914062 37.894531 -68.488281 37.625 -67.90625 C 37.351562 -67.332031 36.988281 -66.851562 36.53125 -66.46875 C 35.675781 -65.769531 34.519531 -65.421875 33.0625 -65.421875 C 31.207031 -65.421875 29.9375 -65.191406 29.25 -64.734375 C 28.9375 -64.503906 28.703125 -64.3125 28.546875 -64.15625 C 28.398438 -64 28.328125 -63.804688 28.328125 -63.578125 C 28.085938 -62.648438 27.929688 -61.265625 27.859375 -59.421875 L 27.859375 -23.34375 C 27.859375 -18.644531 28.9375 -14.71875 31.09375 -11.5625 C 33.019531 -8.78125 37.101562 -7.390625 43.34375 -7.390625 C 49.582031 -7.390625 53.898438 -8.703125 56.296875 -11.328125 C 58.765625 -14.097656 60 -17.566406 60 -21.734375 L 60 -52.125 C 60 -57.21875 59.804688 -60.765625 59.421875 -62.765625 C 59.335938 -63.304688 59.238281 -63.75 59.125 -64.09375 C 59.007812 -64.4375 58.875 -64.648438 58.71875 -64.734375 L 58.609375 -64.84375 C 57.910156 -65.226562 56.367188 -65.421875 53.984375 -65.421875 L 53.28125 -65.421875 C 52.664062 -65.421875 52.085938 -65.5 51.546875 -65.65625 C 51.015625 -65.8125 50.5 -66.082031 50 -66.46875 C 49.5 -66.851562 49.113281 -67.332031 48.84375 -67.90625 C 48.570312 -68.488281 48.414062 -68.914062 48.375 -69.1875 C 48.332031 -69.457031 48.273438 -69.898438 48.203125 -70.515625 L 48.203125 -70.75 C 48.203125 -70.976562 48.203125 -71.1875 48.203125 -71.375 C 48.203125 -71.570312 48.21875 -71.765625 48.25 -71.953125 C 48.289062 -72.148438 48.347656 -72.34375 48.421875 -72.53125 C 48.503906 -72.726562 48.582031 -72.921875 48.65625 -73.109375 C 48.738281 -73.304688 48.816406 -73.5 48.890625 -73.6875 C 48.972656 -73.882812 49.09375 -74.0625 49.25 -74.21875 C 49.707031 -74.832031 50.28125 -75.3125 50.96875 -75.65625 C 51.664062 -76 52.398438 -76.171875 53.171875 -76.171875 L 53.28125 -76.171875 C 55.75 -76.015625 58.0625 -75.914062 60.21875 -75.875 C 62.375 -75.84375 64.34375 -75.828125 66.125 -75.828125 C 67.039062 -75.828125 67.976562 -75.828125 68.9375 -75.828125 C 69.90625 -75.828125 70.929688 -75.84375 72.015625 -75.875 C 73.097656 -75.914062 74.210938 -75.957031 75.359375 -76 C 76.515625 -76.039062 77.710938 -76.097656 78.953125 -76.171875 L 79.0625 -76.171875 C 80.757812 -76.171875 82.070312 -75.519531 83 -74.21875 C 83.6875 -73.207031 84.03125 -72.050781 84.03125 -70.75 L 84.03125 -70.515625 C 83.882812 -68.585938 83.304688 -67.238281 82.296875 -66.46875 C 81.765625 -66 81.226562 -65.707031 80.6875 -65.59375 C 80.144531 -65.476562 79.523438 -65.421875 78.828125 -65.421875 C 76.140625 -65.421875 74.410156 -65.226562 73.640625 -64.84375 C 73.554688 -64.84375 73.492188 -64.820312 73.453125 -64.78125 C 73.421875 -64.75 73.328125 -64.578125 73.171875 -64.265625 C 73.015625 -63.960938 72.898438 -63.539062 72.828125 -63 C 72.671875 -62.226562 72.535156 -60.957031 72.421875 -59.1875 C 72.304688 -57.414062 72.25 -55.296875 72.25 -52.828125 L 72.25 -20.578125 C 72.25 -18.648438 72.070312 -16.816406 71.71875 -15.078125 C 71.375 -13.347656 70.835938 -11.710938 70.109375 -10.171875 C 69.378906 -8.628906 68.4375 -7.203125 67.28125 -5.890625 C 64.113281 -2.035156 60.144531 0.773438 55.375 2.546875 C 50.820312 4.316406 46.195312 5.203125 41.5 5.203125 C 35.101562 5.203125 29.59375 4.046875 24.96875 1.734375 Z M 24.96875 1.734375 "/></g></g><g style="fill:#ffffff;fill-opacity:1;"><g transform="translate(284.059713, 226.383971)"><path style="stroke:none" d="M 3 1.265625 C 2.613281 0.734375 2.34375 0.179688 2.1875 -0.390625 C 2.039062 -0.972656 1.96875 -1.578125 1.96875 -2.203125 L 1.96875 -2.421875 C 1.96875 -2.421875 1.96875 -2.5 1.96875 -2.65625 C 2.125 -4.664062 2.816406 -6.015625 4.046875 -6.703125 C 4.890625 -7.242188 6.125 -7.515625 7.75 -7.515625 C 9.363281 -7.515625 10.441406 -7.707031 10.984375 -8.09375 C 11.523438 -8.476562 11.832031 -8.941406 11.90625 -9.484375 C 12.132812 -10.484375 12.289062 -11.832031 12.375 -13.53125 L 12.375 -59.421875 C 12.289062 -61.109375 12.132812 -62.453125 11.90625 -63.453125 C 11.832031 -63.691406 11.734375 -63.925781 11.609375 -64.15625 C 11.492188 -64.382812 11.285156 -64.578125 10.984375 -64.734375 C 10.441406 -65.191406 9.363281 -65.421875 7.75 -65.421875 L 7.046875 -65.421875 C 6.742188 -65.421875 6.472656 -65.441406 6.234375 -65.484375 C 6.003906 -65.523438 5.71875 -65.5625 5.375 -65.59375 C 5.03125 -65.632812 4.703125 -65.734375 4.390625 -65.890625 C 4.085938 -66.046875 3.816406 -66.273438 3.578125 -66.578125 C 3.347656 -66.734375 3.175781 -66.867188 3.0625 -66.984375 C 2.945312 -67.097656 2.832031 -67.25 2.71875 -67.4375 C 2.601562 -67.632812 2.503906 -67.789062 2.421875 -67.90625 C 2.347656 -68.019531 2.289062 -68.171875 2.25 -68.359375 C 2.21875 -68.554688 2.179688 -68.710938 2.140625 -68.828125 C 2.097656 -68.953125 2.078125 -69.109375 2.078125 -69.296875 C 2.078125 -69.492188 2.054688 -69.628906 2.015625 -69.703125 C 1.984375 -69.773438 1.96875 -69.925781 1.96875 -70.15625 C 1.96875 -70.394531 1.96875 -70.515625 1.96875 -70.515625 L 1.96875 -70.75 C 1.96875 -71.050781 1.984375 -71.351562 2.015625 -71.65625 C 2.054688 -71.96875 2.113281 -72.257812 2.1875 -72.53125 C 2.269531 -72.800781 2.390625 -73.070312 2.546875 -73.34375 C 2.703125 -73.613281 2.851562 -73.90625 3 -74.21875 C 3.3125 -74.601562 3.675781 -74.945312 4.09375 -75.25 C 4.519531 -75.5625 4.984375 -75.789062 5.484375 -75.9375 C 5.984375 -76.09375 6.46875 -76.171875 6.9375 -76.171875 L 7.046875 -76.171875 C 9.515625 -76.015625 11.882812 -75.914062 14.15625 -75.875 C 16.425781 -75.84375 18.566406 -75.828125 20.578125 -75.828125 L 36.875 -75.828125 C 37.957031 -75.828125 39 -75.804688 40 -75.765625 C 41 -75.734375 41.957031 -75.675781 42.875 -75.59375 C 43.800781 -75.519531 44.671875 -75.425781 45.484375 -75.3125 C 46.296875 -75.195312 47.085938 -75.023438 47.859375 -74.796875 C 50.785156 -74.097656 53.441406 -73.015625 55.828125 -71.546875 C 56.984375 -70.773438 58.039062 -69.832031 59 -68.71875 C 59.96875 -67.601562 60.800781 -66.390625 61.5 -65.078125 C 62.882812 -62.378906 63.578125 -59.453125 63.578125 -56.296875 C 63.578125 -53.515625 63.09375 -50.988281 62.125 -48.71875 C 61.164062 -46.445312 59.757812 -44.460938 57.90625 -42.765625 C 56.90625 -41.835938 55.789062 -40.992188 54.5625 -40.234375 C 55.5625 -39.847656 56.445312 -39.460938 57.21875 -39.078125 C 61 -37.296875 63.925781 -34.863281 66 -31.78125 C 67.082031 -30.164062 67.890625 -28.507812 68.421875 -26.8125 C 68.960938 -25.125 69.234375 -23.351562 69.234375 -21.5 C 69.234375 -20.34375 69.15625 -19.207031 69 -18.09375 C 68.851562 -16.976562 68.625 -15.898438 68.3125 -14.859375 C 68.007812 -13.816406 67.644531 -12.832031 67.21875 -11.90625 C 66.789062 -10.976562 66.269531 -10.070312 65.65625 -9.1875 C 65.039062 -8.300781 64.347656 -7.472656 63.578125 -6.703125 C 60.035156 -3.160156 55.601562 -0.617188 50.28125 0.921875 C 45.195312 2.304688 39.957031 3 34.5625 3 L 20.6875 2.890625 C 16.601562 2.890625 12.054688 3.003906 7.046875 3.234375 L 6.9375 3.234375 C 5.238281 3.234375 3.925781 2.578125 3 1.265625 Z M 31.5625 -44.046875 C 34.40625 -44.046875 36.910156 -44.238281 39.078125 -44.625 C 40.691406 -45.007812 42.15625 -45.972656 43.46875 -47.515625 C 44.769531 -48.898438 45.421875 -51.363281 45.421875 -54.90625 C 45.421875 -58.832031 44.613281 -61.625 43 -63.28125 C 41.382812 -64.9375 38.648438 -65.765625 34.796875 -65.765625 L 29.59375 -65.765625 L 29.59375 -44.046875 Z M 46.9375 -10.984375 C 49.550781 -13.140625 50.898438 -16.835938 50.984375 -22.078125 C 50.597656 -25.316406 49.015625 -28.015625 46.234375 -30.171875 C 43.234375 -32.484375 38.300781 -33.640625 31.4375 -33.640625 L 29.59375 -33.640625 L 29.59375 -13.53125 C 29.59375 -11.289062 29.785156 -9.707031 30.171875 -8.78125 C 30.398438 -8.238281 30.628906 -7.929688 30.859375 -7.859375 C 31.085938 -7.785156 31.375 -7.707031 31.71875 -7.625 C 32.070312 -7.550781 32.535156 -7.492188 33.109375 -7.453125 C 33.691406 -7.410156 34.332031 -7.390625 35.03125 -7.390625 C 40.03125 -7.472656 44 -8.671875 46.9375 -10.984375 Z M 46.9375 -10.984375 "/></g></g></g></svg>